<svg width="28" height="11" viewBox="0 0 28 11" fill="none" xmlns="http://www.w3.org/2000/svg">
<g id="Group">
<g id="Group_2">
<path id="Vector" d="M5.57686 1.42592C5.87811 1.06155 6.08238 0.572204 6.02853 0.0722656C5.5878 0.0934424 5.05009 0.353585 4.73854 0.718366C4.45895 1.03062 4.21155 1.54032 4.27592 2.01929C4.77072 2.06081 5.26509 1.78011 5.57686 1.42592Z" fill="white"/>
<path id="Vector_2" d="M6.02144 2.11216C5.30264 2.07064 4.69197 2.50663 4.34888 2.50663C4.00557 2.50663 3.48008 2.13293 2.91169 2.1431C2.17207 2.15348 1.48588 2.55833 1.11038 3.20194C0.338361 4.48916 0.90654 6.39922 1.65753 7.44768C2.02209 7.96672 2.46152 8.53766 3.04043 8.51711C3.58758 8.49635 3.80194 8.17454 4.46667 8.17454C5.1312 8.17454 5.32431 8.51711 5.90343 8.50673C6.5038 8.49635 6.87929 7.98769 7.24385 7.46865C7.66226 6.87694 7.83327 6.306 7.844 6.27486C7.83327 6.26448 6.68618 5.83866 6.67545 4.56182C6.66472 3.4926 7.57621 2.98394 7.61913 2.95259C7.10438 2.21597 6.30017 2.13292 6.02123 2.11216" fill="white"/>
</g>
<g id="Group_3">
<path id="Vector_3" d="M13.1854 0.666138C14.747 0.666138 15.8347 1.70775 15.8347 3.22417C15.8347 4.74599 14.7247 5.793 13.1463 5.793H11.4173V8.4538H10.1681V0.666138H13.1854ZM11.4173 4.77838H12.8506C13.9385 4.77838 14.5573 4.2118 14.5573 3.22957C14.5573 2.24755 13.9383 1.68615 12.8562 1.68615H11.4173V4.77838Z" fill="white"/>
<path id="Vector_4" d="M16.1447 6.83939C16.1447 5.84097 16.931 5.26898 18.3811 5.18262L19.9372 5.09085V4.65901C19.9372 4.02786 19.5078 3.68239 18.7437 3.68239C18.1133 3.68239 17.6559 3.99526 17.5615 4.47548H16.4345C16.4682 3.46646 17.4497 2.73254 18.7772 2.73254C20.2049 2.73254 21.1364 3.45567 21.1364 4.57825V8.45298H19.982V7.51933H19.9541C19.625 8.1291 18.8997 8.51215 18.1133 8.51215C16.9534 8.51215 16.1447 7.84321 16.1447 6.83939ZM19.9372 6.33758V5.90034L18.5485 5.98671C17.7674 6.03529 17.3606 6.31578 17.3606 6.80679C17.3606 7.28182 17.7844 7.58951 18.4481 7.58951C19.2956 7.58951 19.9372 7.0659 19.9372 6.33758Z" fill="white"/>
<path id="Vector_5" d="M22.1975 10.5361V9.60269C22.2756 9.61327 22.4651 9.62407 22.5655 9.62407C23.1176 9.62407 23.43 9.39777 23.6197 8.81458L23.7312 8.46931L21.6173 2.80286H22.9223L24.3949 7.40071H24.4228L25.8952 2.80286H27.1669L24.9749 8.7552C24.4728 10.1207 23.8984 10.5687 22.6826 10.5687C22.5878 10.5687 22.281 10.5579 22.1975 10.5361Z" fill="white"/>
</g>
</g>
</svg>
