<svg width="36" height="22" viewBox="0 0 36 22" fill="none" xmlns="http://www.w3.org/2000/svg">
<g id="Group">
<path id="Vector" d="M34 0C35.1 0 36 0.9 36 2V20C36 21.1 35.1 22 34 22H2C0.9 22 0 21.1 0 20V2C0 0.9 0.9 0 2 0H34Z" fill="#006FCF"/>
<path id="Vector_2" d="M8.01041 9.99404L8.78811 11.8147H7.23874L8.01041 9.99404ZM24.1623 10.0697H21.1711V10.8723H24.1141V12.0748H21.1771V12.9696H24.1684V13.6867L26.2553 11.508L24.1684 9.23706L24.1623 10.0697ZM10.032 7.79879H14.0462L14.9374 9.67669L15.7633 7.79297H26.1829L27.2661 8.94785L28.3864 7.79297H33.1722L29.6364 11.5313L33.1361 15.2463H28.2789L27.1958 14.0914L26.0654 15.2463H9.07448L8.57811 14.0914H7.44271L6.94534 15.2463H3.01562L6.31735 7.79297H9.76376L10.032 7.79879ZM18.7365 8.84498H16.4868L14.9796 12.2766L13.3468 8.84498H11.1142V13.513L9.04433 8.84498H7.0418L4.6484 14.1943H6.21084L6.7072 13.0394H9.31563L9.81199 14.1943H12.545V10.3754L14.3044 14.2001H15.5001L17.2484 10.3871V14.2011H18.7134L18.7375 8.84401L18.7365 8.84498ZM28.1212 11.5313L30.6643 8.84498H28.8336L27.2249 10.52L25.6695 8.84498H19.7473V14.2001H25.5851L27.2068 12.5134L28.7622 14.2001H30.6462L28.1212 11.5313Z" fill="white"/>
</g>
</svg>
