<svg width="36" height="22" viewBox="0 0 36 22" fill="none" xmlns="http://www.w3.org/2000/svg">
<g id="mastercard">
<path id="Vector" d="M33.6457 -0.166016H2.35428C1.05405 -0.166016 0 0.857334 0 2.1197V19.5483C0 20.8106 1.05405 21.834 2.35428 21.834H33.6457C34.946 21.834 36 20.8106 36 19.5483V2.1197C36 0.857334 34.946 -0.166016 33.6457 -0.166016Z" fill="#1A1A1A"/>
<path id="Vector_2" d="M11.5727 18.9743V17.9637C11.5727 17.5762 11.33 17.3235 10.9133 17.3235C10.7051 17.3235 10.4797 17.3908 10.3236 17.6096C10.2019 17.4238 10.0285 17.3235 9.7683 17.3235C9.67337 17.3196 9.57898 17.3392 9.49397 17.3804C9.40896 17.4216 9.33612 17.4831 9.28229 17.5591V17.357H8.91797V18.9743H9.28229V18.0826C9.28229 17.7961 9.43842 17.6612 9.68142 17.6612C9.92443 17.6612 10.0457 17.8132 10.0457 18.0826V18.9743H10.4104V18.0826C10.4104 17.7961 10.5838 17.6612 10.8092 17.6612C11.0522 17.6612 11.1739 17.8132 11.1739 18.0826V18.9743H11.5727ZM16.9685 17.357H16.3792V16.8684H16.0149V17.357H15.6854V17.6772H16.0149V18.4185C16.0149 18.79 16.171 19.0081 16.5889 19.0081C16.747 19.0051 16.9019 18.9645 17.0401 18.8899L16.936 18.5868C16.8425 18.6437 16.734 18.673 16.6237 18.6711C16.4504 18.6711 16.3807 18.57 16.3807 18.4017V17.6772H16.9708V17.357H16.9685ZM20.0572 17.3235C19.9698 17.3216 19.8834 17.3425 19.8071 17.3839C19.7308 17.4253 19.6673 17.4858 19.6232 17.5591V17.357H19.2589V18.9743H19.6232V18.0647C19.6232 17.795 19.7449 17.6434 19.9703 17.6434C20.0467 17.6463 20.1224 17.6577 20.1961 17.6772L20.3002 17.3402C20.22 17.3264 20.1386 17.3208 20.0572 17.3235ZM15.3884 17.4918C15.2147 17.3741 14.9721 17.3235 14.7115 17.3235C14.2951 17.3235 14.0176 17.5256 14.0176 17.8437C14.0176 18.1134 14.2258 18.265 14.5917 18.3155L14.765 18.3323C14.9564 18.3661 15.0601 18.4166 15.0601 18.5009C15.0601 18.6187 14.9212 18.703 14.6774 18.703C14.4787 18.7042 14.2847 18.6452 14.1221 18.5344L13.9484 18.8041C14.1397 18.9386 14.3996 19.0062 14.6598 19.0062C15.1458 19.0062 15.4232 18.787 15.4232 18.4838C15.4232 18.1974 15.1978 18.0458 14.8492 17.9953L14.6759 17.9785C14.5197 17.9618 14.398 17.928 14.398 17.827C14.398 17.7092 14.5197 17.6412 14.7103 17.6412C14.9185 17.6412 15.127 17.7255 15.2311 17.7761L15.3873 17.4896L15.3884 17.4918ZM25.0704 17.3235C24.983 17.3216 24.8966 17.3425 24.8203 17.3839C24.744 17.4253 24.6805 17.4858 24.6364 17.5591V17.357H24.2721V18.9743H24.6364V18.0647C24.6364 17.795 24.7581 17.6434 24.9835 17.6434C25.0597 17.6463 25.1353 17.6577 25.2089 17.6772L25.313 17.3402C25.233 17.3264 25.1516 17.3208 25.0704 17.3235ZM20.42 18.1658C20.42 18.6544 20.7671 19.0081 21.3047 19.0081C21.5477 19.0081 21.7215 18.9576 21.8948 18.8223L21.7215 18.5359C21.5985 18.6324 21.4456 18.6858 21.2875 18.6874C20.9925 18.6874 20.7843 18.4853 20.7843 18.1654C20.7843 17.8623 20.9925 17.6598 21.2875 17.643C21.4456 17.6447 21.5985 17.6981 21.7215 17.7946L21.8948 17.5082C21.7215 17.3737 21.5477 17.3224 21.3047 17.3224C20.7671 17.3224 20.42 17.6761 20.42 18.1647V18.1658ZM23.7876 18.1658V17.357H23.4244V17.5591C23.3031 17.4075 23.1294 17.3235 22.904 17.3235C22.4356 17.3235 22.0709 17.6772 22.0709 18.1658C22.0709 18.6544 22.4356 19.0081 22.904 19.0081C23.147 19.0081 23.3203 18.9237 23.4244 18.7722V18.9743H23.7888L23.7876 18.1658ZM22.4517 18.1658C22.4517 17.8793 22.643 17.6434 22.9549 17.6434C23.2499 17.6434 23.4581 17.8626 23.4581 18.1658C23.4581 18.4523 23.2499 18.6878 22.9549 18.6878C22.6426 18.6711 22.4517 18.4523 22.4517 18.1658ZM18.0963 17.3235C17.6107 17.3235 17.2636 17.6601 17.2636 18.1658C17.2636 18.6715 17.6107 19.0081 18.1135 19.0081C18.3585 19.013 18.5976 18.9355 18.7905 18.7889L18.6168 18.5362C18.4775 18.6412 18.3074 18.7003 18.1311 18.7049C17.9053 18.7049 17.6799 18.6039 17.6279 18.3174H18.8598V18.1825C18.8774 17.6601 18.5647 17.3235 18.0963 17.3235ZM18.0963 17.6267C18.3221 17.6267 18.479 17.7616 18.5127 18.0142H17.6459C17.6807 17.795 17.8372 17.6267 18.0971 17.6267H18.0963ZM27.1365 18.1658V16.7168H26.7722V17.5591C26.6509 17.4075 26.4771 17.3235 26.2517 17.3235C25.7833 17.3235 25.419 17.6772 25.419 18.1658C25.419 18.6544 25.7833 19.0081 26.2517 19.0081C26.4947 19.0081 26.6681 18.9237 26.7722 18.7722V18.9743H27.1365V18.1658ZM25.8005 18.1658C25.8005 17.8793 25.9919 17.6434 26.3038 17.6434C26.5988 17.6434 26.807 17.8626 26.807 18.1658C26.807 18.4523 26.5988 18.6878 26.3038 18.6878C25.9915 18.6711 25.8005 18.4523 25.8005 18.1658ZM13.6196 18.1658V17.357H13.2553V17.5591C13.1336 17.4075 12.9603 17.3235 12.7345 17.3235C12.2661 17.3235 11.9018 17.6772 11.9018 18.1658C11.9018 18.6544 12.2661 19.0081 12.7345 19.0081C12.9775 19.0081 13.1512 18.9237 13.2553 18.7722V18.9743H13.6196V18.1658ZM12.2661 18.1658C12.2661 17.8793 12.4574 17.6434 12.7693 17.6434C13.0644 17.6434 13.2726 17.8626 13.2726 18.1658C13.2726 18.4523 13.0644 18.6878 12.7693 18.6878C12.4578 18.6711 12.2669 18.4523 12.2669 18.1658H12.2661Z" fill="white"/>
<path id="Vector_3" d="M20.7315 5.07422H15.2656V14.6094H20.7315V5.07422Z" fill="#FF5F00"/>
<path id="Vector_4" d="M15.6129 9.84395C15.6131 8.92665 15.827 8.02127 16.2387 7.19563C16.6504 6.36999 17.2492 5.64547 17.9902 5.07634C17.0687 4.37298 15.962 3.93553 14.7965 3.81399C13.6311 3.69245 12.4539 3.89172 11.3996 4.38903C10.3453 4.88634 9.45642 5.66163 8.83452 6.62625C8.21262 7.59088 7.88281 8.70594 7.88281 9.84395C7.88281 10.982 8.21262 12.097 8.83452 13.0616C9.45642 14.0263 10.3453 14.8016 11.3996 15.2989C12.4539 15.7962 13.6311 15.9955 14.7965 15.8739C15.962 15.7524 17.0687 15.3149 17.9902 14.6116C17.2478 14.0436 16.648 13.3194 16.2362 12.4935C15.8244 11.6675 15.6112 10.7616 15.6129 9.84395Z" fill="#EB001B"/>
<path id="Vector_5" d="M28.1069 9.84236C28.108 10.9799 27.7793 12.0948 27.1583 13.0595C26.5373 14.0241 25.6491 14.7996 24.5953 15.297C23.5416 15.7945 22.3649 15.9938 21.1999 15.8723C20.0349 15.7508 18.9287 15.3134 18.0078 14.61C18.749 14.041 19.3478 13.3165 19.7596 12.4908C20.1713 11.6651 20.3851 10.7597 20.3851 9.84236C20.3851 8.92502 20.1713 8.01958 19.7596 7.19391C19.3478 6.36823 18.749 5.64375 18.0078 5.07476C19.1048 4.23355 20.4621 3.77641 21.8599 3.77735C25.3129 3.77735 28.1069 6.50668 28.1069 9.84236Z" fill="#F79E1B"/>
</g>
</svg>
