<svg width="36" height="22" viewBox="0 0 36 22" fill="none" xmlns="http://www.w3.org/2000/svg">
<g id="visa">
<path id="Vector" d="M33.6457 -0.166016H2.35428C1.05405 -0.166016 0 0.857334 0 2.1197V19.5483C0 20.8106 1.05405 21.834 2.35428 21.834H33.6457C34.946 21.834 36 20.8106 36 19.5483V2.1197C36 0.857334 34.946 -0.166016 33.6457 -0.166016Z" fill="#1A1F71"/>
<path id="path4163" d="M17.1796 7.34107L15.6366 14.3446H13.7706L15.3136 7.34107H17.1796ZM25.0312 11.8635L26.0135 9.23333L26.5787 11.8635H25.0312ZM27.1141 14.3446H28.8396L27.3322 7.34107H25.7403C25.57 7.33949 25.4033 7.3876 25.2615 7.47915C25.1198 7.57071 25.0097 7.70149 24.9454 7.85454L22.1469 14.3446H24.107L24.4962 13.2987H26.8899L27.1141 14.3446ZM22.2421 12.0582C22.2506 10.2101 19.6108 10.1076 19.628 9.28162C19.6338 9.03083 19.8802 8.76147 20.4194 8.69497C20.6873 8.66153 21.424 8.63478 22.2601 9.00855L22.5869 7.52239C22.0286 7.31967 21.4376 7.21487 20.8415 7.21289C18.9966 7.21289 17.6985 8.16441 17.6882 9.52796C17.6763 10.5359 18.6154 11.0981 19.3211 11.434C20.0482 11.7773 20.2931 11.9976 20.2893 12.3041C20.2843 12.7741 19.7088 12.9818 19.1734 12.99C18.2343 13.0041 17.6905 12.7436 17.2565 12.5471L16.9178 14.0827C17.3549 14.2766 18.1593 14.4457 18.9928 14.4542C20.954 14.4542 22.2364 13.5138 22.2421 12.0578M14.5119 7.33922L11.4887 14.3427H9.51822L8.03034 8.75329C7.94003 8.40962 7.86158 8.2833 7.58719 8.1384C7.1383 7.90173 6.39742 7.68029 5.74609 7.54394L5.7901 7.3407H8.96639C9.37089 7.3407 9.73482 7.60078 9.82743 8.05443L10.6135 12.1076L12.5548 7.3407L14.5119 7.33922Z" fill="white"/>
</g>
</svg>
