<svg width="32" height="32" viewBox="0 0 32 32" fill="none" xmlns="http://www.w3.org/2000/svg">
<g id="Heart">
<path id="Vector" d="M15.9996 28.7614L4.68631 17.4481C3.18589 15.9478 2.3429 13.913 2.34277 11.7912C2.34265 9.66942 3.1854 7.63449 4.68565 6.13407C6.18589 4.63365 8.22072 3.79065 10.3425 3.79053C12.4643 3.7904 14.4992 4.63316 15.9996 6.1334C17.5008 4.63485 19.5352 3.7932 21.6563 3.7932C23.7774 3.7932 25.8118 4.63485 27.313 6.1334C28.8109 7.63489 29.6521 9.66918 29.6521 11.7901C29.6521 13.9109 28.8109 15.9452 27.313 17.4467L15.9996 28.7614ZM10.3423 6.4574C9.28737 6.45736 8.25611 6.77018 7.37897 7.3563C6.50184 7.94241 5.81822 8.77549 5.41459 9.75016C5.01096 10.7248 4.90546 11.7973 5.11141 12.832C5.31737 13.8666 5.82554 14.8169 6.57165 15.5627L15.9996 24.9907L25.4276 15.5627C25.9692 15.0333 26.3917 14.3946 26.6672 13.6891C26.9426 12.9836 27.0647 12.2276 27.0252 11.4713C26.9857 10.715 26.7856 9.97573 26.4382 9.30277C26.0908 8.62981 25.6041 8.03856 25.0104 7.56835C24.4167 7.09815 23.7297 6.75978 22.995 6.57576C22.2604 6.39174 21.495 6.3663 20.7497 6.50111C20.0045 6.63593 19.2965 6.92792 18.6729 7.35765C18.0493 7.78738 17.5243 8.345 17.133 8.9934L15.9996 10.8227L14.8663 8.9934C14.3985 8.21344 13.7349 7.56934 12.9413 7.12496C12.1477 6.68058 11.2518 6.45138 10.3423 6.46007V6.4574Z" fill="currentColor"/>
</g>
</svg>
