<svg width="24" height="24" viewBox="0 0 24 24" fill="none" xmlns="http://www.w3.org/2000/svg">
<g id="ICON" clip-path="url(#clip0_2_2474)">
<g id="Group 8117">
<path id="Vector" d="M18.6654 7.92674C18.1747 8.14007 17.648 8.28674 17.0947 8.35074C17.66 8.01741 18.092 7.48941 18.2974 6.86141C17.7587 7.17536 17.1709 7.39624 16.5587 7.51474C16.3012 7.24484 15.9914 7.03022 15.6483 6.88397C15.3051 6.73771 14.9357 6.6629 14.5627 6.66408C13.052 6.66408 11.828 7.87074 11.828 9.3574C11.828 9.56807 11.852 9.7734 11.8987 9.97074C10.8151 9.91928 9.75419 9.64253 8.78356 9.15813C7.81293 8.67374 6.95393 7.99234 6.26136 7.15741C6.01812 7.56688 5.89004 8.03447 5.8907 8.51074C5.8907 9.44407 6.3747 10.2707 7.10803 10.7521C6.67396 10.7385 6.24918 10.6229 5.86803 10.4147V10.4481C5.87215 11.074 6.0931 11.6792 6.49325 12.1605C6.89341 12.6419 7.44804 12.9697 8.0627 13.0881C7.65918 13.1948 7.23695 13.2102 6.8267 13.1334C7.00553 13.6719 7.3476 14.1413 7.8054 14.4766C8.26319 14.8118 8.81401 14.9961 9.38136 15.0041C8.40798 15.7541 7.21288 16.1594 5.98403 16.1561C5.76403 16.1561 5.5467 16.1427 5.33203 16.1187C6.58599 16.9124 8.03998 17.3328 9.52403 17.3307C14.556 17.3307 17.3067 13.2267 17.3067 9.66674L17.2974 9.3174C17.8338 8.94045 18.2973 8.46925 18.6654 7.92674Z" fill="#FF0000"/>
<path id="Vector_2" d="M12 21.6C14.5461 21.6 16.9879 20.5886 18.7882 18.7882C20.5886 16.9879 21.6 14.5461 21.6 12C21.6 9.45392 20.5886 7.01212 18.7882 5.21178C16.9879 3.41143 14.5461 2.4 12 2.4C9.45392 2.4 7.01212 3.41143 5.21178 5.21178C3.41143 7.01212 2.4 9.45392 2.4 12C2.4 14.5461 3.41143 16.9879 5.21178 18.7882C7.01212 20.5886 9.45392 21.6 12 21.6ZM12 24C5.3724 24 0 18.6276 0 12C0 5.3724 5.3724 0 12 0C18.6276 0 24 5.3724 24 12C24 18.6276 18.6276 24 12 24Z" fill="#FF0000"/>
</g>
</g>
<defs>
<clipPath id="clip0_2_2474">
<rect width="24" height="24" fill="white"/>
</clipPath>
</defs>
</svg>
