<svg width="24" height="24" viewBox="0 0 24 24" fill="none" xmlns="http://www.w3.org/2000/svg">
<g id="ICON">
<path id="Vector" d="M22.9961 9.71554C22.7856 9.72862 22.5744 9.72862 22.3639 9.71554C21.2235 9.71668 20.1008 9.45193 19.0975 8.94528C18.0942 8.43864 17.242 7.7061 16.6181 6.81401V16.7002C16.6181 18.144 16.1599 19.5553 15.3017 20.7558C14.4434 21.9562 13.2235 22.8918 11.7962 23.4443C10.3689 23.9968 8.79841 24.1414 7.28323 23.8597C5.76805 23.5781 4.37628 22.8828 3.2839 21.8619C2.19151 20.841 1.44757 19.5404 1.14618 18.1243C0.844791 16.7083 0.999489 15.2406 1.59068 13.9067C2.18188 12.5728 3.18302 11.4328 4.46752 10.6307C5.75203 9.82856 7.26223 9.40044 8.80709 9.40044H9.28474V12.9978C9.12585 12.9842 8.96597 12.9842 8.80709 12.9978C7.74894 12.9978 6.73413 13.3907 5.9859 14.0899C5.23767 14.7892 4.81732 15.7376 4.81732 16.7265C4.81732 17.7154 5.23767 18.6638 5.9859 19.363C6.73413 20.0623 7.74894 20.4551 8.80709 20.4551C9.8771 20.4695 10.9104 20.0911 11.6853 19.4014C12.4602 18.7116 12.9147 17.7654 12.9514 16.7659V0H16.6321C16.802 1.49489 17.5278 2.88665 18.6831 3.93271C19.8384 4.97877 21.3498 5.6128 22.9539 5.72429V9.66302" fill="#FF0000"/>
</g>
</svg>
